<svg width="806" height="220" viewBox="0 0 806 220" version="1.1" xmlns="http://www.w3.org/2000/svg" xmlns:xlink="http://www.w3.org/1999/xlink">
<title>Untitled</title>
<desc>Created using Figma</desc>
<g id="Canvas" transform="matrix(2 0 0 2 514 982)">
<rect x="-257" y="-491" width="403" height="110" fill="#E5E5E5"/>
<g id="Group">
<g id="Rectangle">
<use xlink:href="#path0_fill" transform="translate(-242.242 -480)" fill="#FFFFFF"/>
</g>
<g id="lock.sh">
<use xlink:href="#path1_fill" transform="translate(-255 -493)" fill="#363636"/>
</g>
</g>
</g>
<defs>
<path id="path0_fill" d="M 0 0L 361.728 0L 361.728 89L 0 89L 0 0Z"/>
<path id="path1_fill" d="M -1.44 111.448L -1.44 2.968L 18.528 2.968L 18.528 111.448L -1.44 111.448ZM 15.6225 111.448L 15.6225 2.968L 35.5905 2.968L 35.5905 111.448L 15.6225 111.448ZM 32.685 111.448L 32.685 2.968L 52.653 2.968L 52.653 111.448L 32.685 111.448ZM 50.2275 111.448L 50.2275 2.968L 79.4115 2.968L 79.4115 111.448L 50.2275 111.448ZM 52.9155 91L 76.8195 91L 76.8195 81.688L 71.0595 81.688L 71.0595 24.952L 52.4355 24.952L 52.4355 34.36L 58.6755 34.36L 58.6755 81.688L 52.9155 81.688L 52.9155 91ZM 77.3213 111.448L 77.3213 2.968L 129.449 2.968L 129.449 111.448L 77.3213 111.448ZM 103.433 46.744C 95.6252 46.744 89.8013 49.016 85.9613 53.56C 82.1213 58.104 80.2013 63.544 80.2013 69.88C 80.2013 76.856 82.2812 82.296 86.4412 86.2C 90.6653 90.04 96.1052 91.96 102.761 91.96C 109.673 91.96 115.369 89.912 119.849 85.816C 124.329 81.72 126.569 76.248 126.569 69.4C 126.569 63.32 124.649 58.04 120.809 53.56C 117.033 49.016 111.241 46.744 103.433 46.744ZM 103.145 82.456C 99.7533 82.456 97.1933 81.176 95.4652 78.616C 93.8012 76.056 92.9693 72.92 92.9693 69.208C 92.9693 65.112 93.8653 61.944 95.6573 59.704C 97.5132 57.4 100.041 56.248 103.241 56.248C 106.185 56.248 108.681 57.272 110.729 59.32C 112.777 61.368 113.801 64.6 113.801 69.016C 113.801 73.176 112.809 76.472 110.825 78.904C 108.905 81.272 106.345 82.456 103.145 82.456ZM 127.571 111.448L 127.571 2.968L 174.611 2.968L 174.611 111.448L 127.571 111.448ZM 172.211 74.872L 161.843 72.952C 161.011 79.096 158.163 82.168 153.299 82.168C 146.707 82.168 143.411 77.944 143.411 69.496C 143.411 64.952 144.339 61.688 146.195 59.704C 148.051 57.656 150.291 56.632 152.915 56.632C 154.771 56.632 156.947 57.048 159.443 57.88L 160.883 64.984L 170.771 63.928L 168.851 50.776C 166.227 49.368 163.539 48.376 160.787 47.8C 158.099 47.16 155.571 46.84 153.203 46.84C 146.931 46.84 141.587 48.792 137.171 52.696C 132.755 56.6 130.547 62.392 130.547 70.072C 130.547 77.368 132.563 82.84 136.595 86.488C 140.691 90.136 145.875 91.96 152.147 91.96C 159.123 91.96 164.083 90.104 167.027 86.392C 170.035 82.68 171.763 78.84 172.211 74.872ZM 172.759 111.448L 172.759 2.968L 227.767 2.968L 227.767 111.448L 172.759 111.448ZM 203.287 91L 225.463 91L 225.463 81.688L 221.719 81.688L 209.431 67.672L 218.743 57.112L 223.447 57.112L 223.447 47.704L 201.751 47.704L 201.751 57.112L 206.935 57.112L 200.599 64.408L 193.399 64.408L 193.399 24.952L 174.775 24.952L 174.775 34.36L 181.015 34.36L 181.015 81.688L 175.255 81.688L 175.255 91L 197.335 91L 197.335 81.688L 193.399 81.688L 193.399 73.144L 199.831 73.144L 207.319 81.688L 203.287 81.688L 203.287 91ZM 225.821 111.448L 225.821 2.968L 249.533 2.968L 249.533 111.448L 225.821 111.448ZM 230.333 75.352L 230.333 91L 245.021 91L 245.021 75.352L 230.333 75.352ZM 247.473 111.448L 247.473 2.968L 293.457 2.968L 293.457 111.448L 247.473 111.448ZM 290.193 77.752C 290.193 73.592 288.913 70.648 286.353 68.92C 283.857 67.128 280.913 65.944 277.521 65.368C 274.193 64.792 271.249 64.216 268.689 63.64C 266.193 63 264.945 61.752 264.945 59.896C 264.945 58.488 265.489 57.464 266.577 56.824C 267.729 56.12 269.105 55.768 270.705 55.768C 273.137 55.768 275.409 56.12 277.521 56.824L 278.289 62.872L 287.889 61.816L 286.833 50.776C 281.777 48.152 276.369 46.84 270.609 46.84C 266.193 46.84 261.905 47.768 257.745 49.624C 253.649 51.416 251.601 54.968 251.601 60.28C 251.601 64.568 252.913 67.608 255.537 69.4C 258.161 71.192 261.201 72.376 264.657 72.952C 268.113 73.528 271.153 74.104 273.777 74.68C 276.401 75.256 277.713 76.472 277.713 78.328C 277.713 79.864 276.849 81.016 275.121 81.784C 273.393 82.552 271.345 82.936 268.977 82.936C 268.337 82.936 267.377 82.904 266.097 82.84C 264.817 82.712 263.601 82.456 262.449 82.072L 262.449 76.696L 252.849 75.64L 251.121 87.736C 254.001 89.208 257.009 90.296 260.145 91C 263.345 91.64 266.513 91.96 269.649 91.96C 275.729 91.96 280.657 90.808 284.433 88.504C 288.273 86.136 290.193 82.552 290.193 77.752ZM 291.353 111.448L 291.353 2.968L 348.952 2.968L 348.952 111.448L 291.353 111.448ZM 322.937 91L 346.841 91L 346.841 81.688L 341.081 81.688L 341.081 61.816C 341.081 56.696 339.576 52.92 336.568 50.488C 333.56 48.056 330.009 46.84 325.913 46.84C 319.513 46.84 314.873 49.336 311.993 54.328L 311.993 24.952L 293.849 24.952L 293.849 34.36L 299.608 34.36L 299.608 81.688L 293.849 81.688L 293.849 91L 317.752 91L 317.752 81.688L 311.993 81.688L 311.993 65.656C 312.12 62.84 312.952 60.568 314.488 58.84C 316.089 57.112 318.297 56.248 321.113 56.248C 323.545 56.248 325.401 57.048 326.68 58.648C 328.024 60.248 328.697 62.904 328.697 66.616L 328.697 81.688L 322.937 81.688L 322.937 91ZM 346.654 111.448L 346.654 2.968L 366.622 2.968L 366.622 111.448L 346.654 111.448ZM 363.716 111.448L 363.716 2.968L 383.684 2.968L 383.684 111.448L 363.716 111.448ZM 380.779 111.448L 380.779 2.968L 400.747 2.968L 400.747 111.448L 380.779 111.448Z"/>
</defs>
</svg>
