<svg width="656" height="152" viewBox="0 0 656 152" version="1.1" xmlns="http://www.w3.org/2000/svg" xmlns:xlink="http://www.w3.org/1999/xlink">
<title>Lock.sh</title>
<desc>Created using Figma</desc>
<g id="Canvas" transform="matrix(2 0 0 2 402 1150)">
<g id="Lock.sh" filter="url(#filter0_d)">
<use xlink:href="#path0_fill" transform="translate(-238 -588)" fill="#363636"/>
</g>
</g>
<defs>
<filter id="filter0_d" filterUnits="userSpaceOnUse" x="-201" y="-575" width="328" height="76" color-interpolation-filters="sRGB">
<feFlood flood-opacity="0" result="BackgroundImageFix"/>
<feColorMatrix in="SourceAlpha" type="matrix" values="0 0 0 0 0 0 0 0 0 0 0 0 0 0 0 0 0 0 255 0"/>
<feOffset dx="0" dy="4"/>
<feGaussianBlur stdDeviation="2"/>
<feColorMatrix type="matrix" values="0 0 0 0 0.211765 0 0 0 0 0.211765 0 0 0 0 0.211765 0 0 0 0.1 0"/>
<feBlend mode="normal" in2="BackgroundImageFix" result="effect1_dropShadow"/>
<feBlend mode="normal" in="SourceGraphic" in2="effect1_dropShadow" result="shape"/>
</filter>
<path id="path0_fill" d="M 88.7326 80L 41.8846 80L 41.8846 69.056L 48.6046 69.056L 48.6046 28.544L 41.8846 28.544L 41.8846 17.6L 70.2046 17.6L 70.2046 28.544L 61.4686 28.544L 61.4686 69.056L 77.7886 69.056L 79.7086 56.96L 90.6526 57.92L 88.7326 80ZM 139.96 58.4C 139.96 65.248 137.72 70.72 133.24 74.816C 128.76 78.912 123.064 80.96 116.152 80.96C 109.496 80.96 104.056 79.04 99.8319 75.2C 95.6719 71.296 93.5919 65.856 93.5919 58.88C 93.5919 52.544 95.5119 47.104 99.3519 42.56C 103.192 38.016 109.016 35.744 116.824 35.744C 124.632 35.744 130.424 38.016 134.2 42.56C 138.04 47.04 139.96 52.32 139.96 58.4ZM 127.192 58.016C 127.192 53.6 126.168 50.368 124.12 48.32C 122.072 46.272 119.576 45.248 116.632 45.248C 113.432 45.248 110.904 46.4 109.048 48.704C 107.256 50.944 106.36 54.112 106.36 58.208C 106.36 61.92 107.192 65.056 108.856 67.616C 110.584 70.176 113.144 71.456 116.536 71.456C 119.736 71.456 122.296 70.272 124.216 67.904C 126.2 65.472 127.192 62.176 127.192 58.016ZM 185.602 63.872C 185.154 67.84 183.426 71.68 180.418 75.392C 177.474 79.104 172.514 80.96 165.538 80.96C 159.266 80.96 154.082 79.136 149.986 75.488C 145.954 71.84 143.938 66.368 143.938 59.072C 143.938 51.392 146.146 45.6 150.562 41.696C 154.978 37.792 160.322 35.84 166.594 35.84C 168.962 35.84 171.49 36.16 174.178 36.8C 176.93 37.376 179.618 38.368 182.242 39.776L 184.162 52.928L 174.274 53.984L 172.834 46.88C 170.338 46.048 168.162 45.632 166.306 45.632C 163.682 45.632 161.442 46.656 159.586 48.704C 157.73 50.688 156.802 53.952 156.802 58.496C 156.802 66.944 160.098 71.168 166.69 71.168C 171.554 71.168 174.402 68.096 175.234 61.952L 185.602 63.872ZM 238.853 80L 216.677 80L 216.677 70.688L 220.709 70.688L 213.221 62.144L 206.789 62.144L 206.789 70.688L 210.725 70.688L 210.725 80L 188.645 80L 188.645 70.688L 194.405 70.688L 194.405 23.36L 188.165 23.36L 188.165 13.952L 206.789 13.952L 206.789 53.408L 213.989 53.408L 220.325 46.112L 215.141 46.112L 215.141 36.704L 236.837 36.704L 236.837 46.112L 232.133 46.112L 222.821 56.672L 235.109 70.688L 238.853 70.688L 238.853 80ZM 243.724 80L 243.724 64.352L 258.412 64.352L 258.412 80L 243.724 80ZM 303.776 66.752C 303.776 71.552 301.856 75.136 298.016 77.504C 294.24 79.808 289.312 80.96 283.232 80.96C 280.096 80.96 276.928 80.64 273.728 80C 270.592 79.296 267.584 78.208 264.704 76.736L 266.432 64.64L 276.032 65.696L 276.032 71.072C 277.184 71.456 278.4 71.712 279.68 71.84C 280.96 71.904 281.92 71.936 282.56 71.936C 284.928 71.936 286.976 71.552 288.704 70.784C 290.432 70.016 291.296 68.864 291.296 67.328C 291.296 65.472 289.984 64.256 287.36 63.68C 284.736 63.104 281.696 62.528 278.24 61.952C 274.784 61.376 271.744 60.192 269.12 58.4C 266.496 56.608 265.184 53.568 265.184 49.28C 265.184 43.968 267.232 40.416 271.328 38.624C 275.488 36.768 279.776 35.84 284.192 35.84C 289.952 35.84 295.36 37.152 300.416 39.776L 301.472 50.816L 291.872 51.872L 291.104 45.824C 288.992 45.12 286.72 44.768 284.288 44.768C 282.688 44.768 281.312 45.12 280.16 45.824C 279.072 46.464 278.528 47.488 278.528 48.896C 278.528 50.752 279.776 52 282.272 52.64C 284.832 53.216 287.776 53.792 291.104 54.368C 294.496 54.944 297.44 56.128 299.936 57.92C 302.496 59.648 303.776 62.592 303.776 66.752ZM 360.606 80L 336.702 80L 336.702 70.688L 342.462 70.688L 342.462 55.616C 342.462 51.904 341.79 49.248 340.446 47.648C 339.166 46.048 337.31 45.248 334.878 45.248C 332.062 45.248 329.854 46.112 328.254 47.84C 326.718 49.568 325.886 51.84 325.758 54.656L 325.758 70.688L 331.518 70.688L 331.518 80L 307.614 80L 307.614 70.688L 313.374 70.688L 313.374 23.36L 307.614 23.36L 307.614 13.952L 325.758 13.952L 325.758 43.328C 328.638 38.336 333.278 35.84 339.678 35.84C 343.774 35.84 347.326 37.056 350.334 39.488C 353.342 41.92 354.846 45.696 354.846 50.816L 354.846 70.688L 360.606 70.688L 360.606 80Z"/>
</defs>
</svg>
