<svg width="1036" height="220" viewBox="0 0 1036 220" version="1.1" xmlns="http://www.w3.org/2000/svg" xmlns:xlink="http://www.w3.org/1999/xlink">
<title>Untitled</title>
<desc>Created using Figma</desc>
<g id="Canvas" transform="matrix(2 0 0 2 518 982)">
<rect x="-259" y="-491" width="518" height="110" fill="#E5E5E5"/>
<g id="Group">
<g id="Rectangle">
<use xlink:href="#path0_fill" transform="translate(-240 -480)" fill="#FFFFFF"/>
</g>
<g id="Stash Cafe">
<use xlink:href="#path1_fill" transform="translate(-257 -493)" fill="#363636"/>
</g>
</g>
</g>
<defs>
<path id="path0_fill" d="M 0 0L 482 0L 482 89L 0 89L 0 0Z"/>
<path id="path1_fill" d="M -1.44 111.448L -1.44 2.968L 18.528 2.968L 18.528 111.448L -1.44 111.448ZM 15.6225 111.448L 15.6225 2.968L 35.5905 2.968L 35.5905 111.448L 15.6225 111.448ZM 33.165 111.448L 33.165 2.968L 88.557 2.968L 88.557 111.448L 33.165 111.448ZM 84.621 72.088C 84.621 66.776 83.309 62.872 80.685 60.376C 78.125 57.816 75.117 56.088 71.661 55.192C 68.269 54.232 65.293 53.496 62.733 52.984C 59.917 52.344 57.421 51.512 55.245 50.488C 53.069 49.464 51.981 47.64 51.981 45.016C 51.981 42.776 52.813 41.208 54.477 40.312C 56.205 39.416 58.349 38.968 60.909 38.968C 62.445 38.968 64.013 39.16 65.613 39.544C 67.277 39.928 68.909 40.664 70.509 41.752L 71.373 49.048L 81.645 48.088L 81.069 34.552C 79.085 32.44 76.237 30.776 72.525 29.56C 68.813 28.28 64.909 27.64 60.813 27.64C 55.181 27.64 49.997 29.08 45.261 31.96C 40.525 34.776 38.157 39.672 38.157 46.648C 38.157 51.128 39.181 54.52 41.229 56.824C 43.277 59.064 45.805 60.696 48.813 61.72C 51.885 62.68 54.925 63.416 57.933 63.928C 61.389 64.568 64.397 65.496 66.957 66.712C 69.517 67.864 70.797 70.168 70.797 73.624C 70.797 76.76 69.709 78.776 67.533 79.672C 65.357 80.504 62.573 80.92 59.181 80.92C 58.093 80.92 56.781 80.824 55.245 80.632C 53.709 80.376 51.853 79.672 49.677 78.52L 49.773 70.936L 39.501 69.976L 37.581 85.432C 40.013 87.608 43.309 89.24 47.469 90.328C 51.693 91.416 55.917 91.96 60.141 91.96C 67.757 91.96 73.741 90.264 78.093 86.872C 82.445 83.48 84.621 78.552 84.621 72.088ZM 86.6025 111.448L 86.6025 2.968L 126.731 2.968L 126.731 111.448L 86.6025 111.448ZM 125.77 77.56L 116.746 74.776C 116.362 77.976 115.562 79.928 114.347 80.632C 113.195 81.272 112.234 81.592 111.466 81.592C 108.266 81.592 106.666 79.704 106.666 75.928L 106.666 56.536L 122.219 56.536L 122.219 47.704L 106.666 47.704L 106.666 34.552L 94.2825 34.552L 94.2825 47.704L 88.1385 47.704L 88.1385 56.536L 94.2825 56.536L 94.2825 78.04C 94.2825 82.52 95.6905 85.976 98.5065 88.408C 101.386 90.776 105.227 91.96 110.026 91.96C 119.306 91.96 124.555 87.16 125.77 77.56ZM 124.853 111.448L 124.853 2.968L 175.445 2.968L 175.445 111.448L 124.853 111.448ZM 132.34 50.776L 130.421 62.008L 140.309 63.064L 141.94 56.92C 142.964 56.408 143.988 56.088 145.012 55.96C 146.1 55.768 147.285 55.672 148.565 55.672C 152.085 55.672 154.133 56.728 154.709 58.84C 155.349 60.952 155.668 63.128 155.668 65.368L 155.668 66.808C 153.684 66.552 151.317 66.424 148.565 66.424C 143.637 66.424 139.029 67.288 134.74 69.016C 130.517 70.744 128.405 74.264 128.405 79.576C 128.405 84.12 129.845 87.32 132.725 89.176C 135.605 91.032 138.613 91.96 141.749 91.96C 145.269 91.96 148.148 91.064 150.388 89.272C 152.692 87.48 154.452 85.496 155.668 83.32L 155.668 83.416C 156.308 89.112 159.477 91.96 165.173 91.96C 167.861 91.96 170.452 91.288 172.948 89.944L 172.852 83.416C 172.213 83.608 171.605 83.704 171.029 83.704C 169.044 83.704 168.053 82.584 168.053 80.344L 168.053 61.528C 168.053 56.6 166.356 52.92 162.964 50.488C 159.572 48.056 155.541 46.84 150.869 46.84C 147.349 46.84 144.309 47.128 141.749 47.704C 139.252 48.216 136.117 49.24 132.34 50.776ZM 155.668 73.336C 155.349 76.728 154.228 79.224 152.309 80.824C 150.453 82.36 148.436 83.128 146.261 83.128C 144.405 83.128 143.093 82.648 142.325 81.688C 141.556 80.728 141.173 79.544 141.173 78.136C 141.173 75.768 142.005 74.2 143.668 73.432C 145.332 72.6 147.252 72.184 149.428 72.184C 150.452 72.184 151.476 72.248 152.5 72.376C 153.588 72.504 154.644 72.632 155.668 72.76L 155.668 73.336ZM 173.223 111.448L 173.223 2.968L 219.207 2.968L 219.207 111.448L 173.223 111.448ZM 215.943 77.752C 215.943 73.592 214.663 70.648 212.103 68.92C 209.607 67.128 206.663 65.944 203.271 65.368C 199.943 64.792 196.999 64.216 194.439 63.64C 191.943 63 190.695 61.752 190.695 59.896C 190.695 58.488 191.239 57.464 192.327 56.824C 193.479 56.12 194.855 55.768 196.455 55.768C 198.887 55.768 201.159 56.12 203.271 56.824L 204.039 62.872L 213.639 61.816L 212.583 50.776C 207.527 48.152 202.119 46.84 196.359 46.84C 191.943 46.84 187.655 47.768 183.495 49.624C 179.399 51.416 177.351 54.968 177.351 60.28C 177.351 64.568 178.663 67.608 181.287 69.4C 183.911 71.192 186.951 72.376 190.407 72.952C 193.863 73.528 196.903 74.104 199.527 74.68C 202.151 75.256 203.463 76.472 203.463 78.328C 203.463 79.864 202.599 81.016 200.871 81.784C 199.143 82.552 197.095 82.936 194.727 82.936C 194.087 82.936 193.127 82.904 191.847 82.84C 190.567 82.712 189.351 82.456 188.199 82.072L 188.199 76.696L 178.599 75.64L 176.871 87.736C 179.751 89.208 182.759 90.296 185.895 91C 189.095 91.64 192.263 91.96 195.399 91.96C 201.479 91.96 206.407 90.808 210.183 88.504C 214.023 86.136 215.943 82.552 215.943 77.752ZM 217.102 111.448L 217.102 2.968L 274.702 2.968L 274.702 111.448L 217.102 111.448ZM 248.686 91L 272.591 91L 272.591 81.688L 266.831 81.688L 266.831 61.816C 266.831 56.696 265.326 52.92 262.318 50.488C 259.31 48.056 255.758 46.84 251.662 46.84C 245.262 46.84 240.623 49.336 237.743 54.328L 237.743 24.952L 219.599 24.952L 219.599 34.36L 225.358 34.36L 225.358 81.688L 219.599 81.688L 219.599 91L 243.502 91L 243.502 81.688L 237.743 81.688L 237.743 65.656C 237.87 62.84 238.702 60.568 240.238 58.84C 241.838 57.112 244.047 56.248 246.863 56.248C 249.295 56.248 251.15 57.048 252.43 58.648C 253.774 60.248 254.447 62.904 254.447 66.616L 254.447 81.688L 248.686 81.688L 248.686 91ZM 272.404 111.448L 272.404 2.968L 292.372 2.968L 292.372 111.448L 272.404 111.448ZM 289.946 111.448L 289.946 2.968L 353.594 2.968L 353.594 111.448L 289.946 111.448ZM 347.93 84.376L 349.178 69.688L 338.714 68.728L 337.37 78.04C 334.49 79.768 330.522 80.632 325.466 80.632C 320.09 80.632 315.674 79 312.218 75.736C 308.762 72.472 307.034 67.224 307.034 59.992C 307.034 53.144 308.602 47.928 311.738 44.344C 314.938 40.76 319.226 38.968 324.602 38.968C 326.714 38.968 328.954 39.256 331.322 39.832C 333.69 40.408 335.706 41.24 337.37 42.328L 338.714 50.584L 349.178 49.624L 347.642 35.128C 345.658 33.272 342.746 31.576 338.906 30.04C 335.066 28.44 330.49 27.64 325.178 27.64C 317.306 27.64 311.034 29.4 306.362 32.92C 301.69 36.44 298.33 40.76 296.282 45.88C 294.234 51 293.21 55.992 293.21 60.856C 293.21 70.136 296.218 77.656 302.234 83.416C 308.25 89.112 315.706 91.96 324.602 91.96C 329.082 91.96 333.562 91.256 338.042 89.848C 342.586 88.44 345.882 86.616 347.93 84.376ZM 351.634 111.448L 351.634 2.968L 402.226 2.968L 402.226 111.448L 351.634 111.448ZM 359.122 50.776L 357.202 62.008L 367.09 63.064L 368.722 56.92C 369.746 56.408 370.77 56.088 371.794 55.96C 372.882 55.768 374.066 55.672 375.346 55.672C 378.866 55.672 380.914 56.728 381.49 58.84C 382.13 60.952 382.45 63.128 382.45 65.368L 382.45 66.808C 380.466 66.552 378.098 66.424 375.346 66.424C 370.418 66.424 365.81 67.288 361.522 69.016C 357.298 70.744 355.186 74.264 355.186 79.576C 355.186 84.12 356.626 87.32 359.506 89.176C 362.386 91.032 365.394 91.96 368.53 91.96C 372.05 91.96 374.93 91.064 377.17 89.272C 379.474 87.48 381.234 85.496 382.45 83.32L 382.45 83.416C 383.09 89.112 386.258 91.96 391.954 91.96C 394.642 91.96 397.234 91.288 399.73 89.944L 399.634 83.416C 398.994 83.608 398.386 83.704 397.81 83.704C 395.826 83.704 394.834 82.584 394.834 80.344L 394.834 61.528C 394.834 56.6 393.138 52.92 389.746 50.488C 386.354 48.056 382.322 46.84 377.65 46.84C 374.13 46.84 371.09 47.128 368.53 47.704C 366.034 48.216 362.898 49.24 359.122 50.776ZM 382.45 73.336C 382.13 76.728 381.01 79.224 379.09 80.824C 377.234 82.36 375.218 83.128 373.042 83.128C 371.186 83.128 369.874 82.648 369.106 81.688C 368.338 80.728 367.954 79.544 367.954 78.136C 367.954 75.768 368.786 74.2 370.45 73.432C 372.114 72.6 374.034 72.184 376.21 72.184C 377.234 72.184 378.258 72.248 379.282 72.376C 380.37 72.504 381.426 72.632 382.45 72.76L 382.45 73.336ZM 400.196 111.448L 400.196 2.968L 435.044 2.968L 435.044 25.336C 432.42 24.44 429.732 23.992 426.98 23.992C 421.284 23.992 416.964 25.72 414.02 29.176C 411.076 32.632 409.604 36.6 409.604 41.08L 409.604 47.704L 404.324 47.704L 404.324 56.536L 409.604 56.536L 409.604 81.688L 403.844 81.688L 403.844 91L 429.188 91L 429.188 81.688L 421.988 81.688L 421.988 56.536L 432.644 56.536L 432.644 47.704L 421.988 47.704L 421.988 40.024C 421.988 37.976 422.564 36.536 423.716 35.704C 424.868 34.872 426.212 34.456 427.748 34.456C 428.964 34.456 430.212 34.68 431.492 35.128C 432.836 35.512 434.02 35.96 435.044 36.472L 435.044 111.448L 400.196 111.448ZM 433.103 111.448L 433.103 2.968L 481.294 2.968L 481.294 111.448L 433.103 111.448ZM 478.51 77.368L 468.142 75.448C 467.887 76.728 467.151 78.168 465.935 79.768C 464.783 81.368 462.542 82.168 459.214 82.168C 453.135 82.168 449.743 78.744 449.038 71.896L 477.454 71.896C 477.902 69.848 478.127 67.768 478.127 65.656C 478.062 60.024 476.142 55.48 472.366 52.024C 468.654 48.568 463.791 46.84 457.774 46.84C 450.926 46.84 445.582 49.08 441.743 53.56C 437.966 57.976 436.079 63.512 436.079 70.168C 436.079 77.4 438.158 82.84 442.318 86.488C 446.542 90.136 451.887 91.96 458.351 91.96C 464.559 91.96 469.39 90.488 472.846 87.544C 476.303 84.6 478.19 81.208 478.51 77.368ZM 465.358 64.696L 449.135 64.696C 449.519 62.008 450.414 59.832 451.822 58.168C 453.231 56.504 455.214 55.672 457.774 55.672C 460.719 55.672 462.767 56.632 463.918 58.552C 465.135 60.472 465.614 62.52 465.358 64.696ZM 478.748 111.448L 478.748 2.968L 498.716 2.968L 498.716 111.448L 478.748 111.448ZM 495.81 111.448L 495.81 2.968L 515.778 2.968L 515.778 111.448L 495.81 111.448Z"/>
</defs>
</svg>
